<svg width="1280" height="720" xmlns="http://www.w3.org/2000/svg" xmlns:xlink="http://www.w3.org/1999/xlink" overflow="hidden"><g><rect x="0" y="0" width="1280" height="720" fill="#FFFFFF"/><text font-family="Calibri Light,Calibri Light_MSFontService,sans-serif" font-weight="300" font-size="48" transform="translate(97.6 52)">Kraken2: k</text><text font-family="Calibri Light,Calibri Light_MSFontService,sans-serif" font-weight="300" font-size="48" transform="translate(296.247 52)">-</text><text font-family="Calibri Light,Calibri Light_MSFontService,sans-serif" font-weight="300" font-size="48" transform="translate(310.913 52)">mer</text><text font-family="Calibri Light,Calibri Light_MSFontService,sans-serif" font-weight="300" font-size="48" transform="translate(389.08 52)">-</text><text font-family="Calibri Light,Calibri Light_MSFontService,sans-serif" font-weight="300" font-size="48" transform="translate(403.747 52)">based taxonomic classification workflow</text><rect x="327.5" y="240.5" width="199" height="86" stroke="#172C51" stroke-width="1.33333" stroke-miterlimit="8" fill="none"/><text font-family="Calibri,Calibri_MSFontService,sans-serif" font-weight="400" font-size="24" transform="translate(336.733 262)">Database of k</text><text font-family="Calibri,Calibri_MSFontService,sans-serif" font-weight="400" font-size="24" transform="translate(469.386 262)">-</text><text font-family="Calibri,Calibri_MSFontService,sans-serif" font-weight="400" font-size="24" transform="translate(476.719 262)">mer</text><text font-family="Calibri,Calibri_MSFontService,sans-serif" font-weight="400" font-size="24" transform="translate(378.079 291)">minimizer</text><text font-family="Calibri,Calibri_MSFontService,sans-serif" font-weight="400" font-size="24" transform="translate(375.059 320)">sequences</text><path d="M433.25 171.5 433.25 219 439.5 219 427 231.5 414.5 219 420.75 219 420.75 171.5Z" stroke="#2F528F" stroke-width="1.33333" stroke-miterlimit="8" fill="#4472C4" fill-rule="evenodd"/><rect x="226.5" y="413.5" width="645" height="32" stroke="#172C51" stroke-width="1.33333" stroke-miterlimit="8" fill="none"/><text font-family="Calibri,Calibri_MSFontService,sans-serif" font-weight="400" font-size="24" transform="translate(444.311 437)">Classification outputs</text><rect x="226.5" y="456.5" width="313" height="86" stroke="#172C51" stroke-width="1.33333" stroke-miterlimit="8" fill="none"/><text font-family="Calibri,Calibri_MSFontService,sans-serif" font-weight="400" font-size="24" transform="translate(258.636 478)">Kraken2 standard output:</text><text font-family="Calibri,Calibri_MSFontService,sans-serif" font-weight="400" font-size="24" transform="translate(285.536 507)">Input sequence pair</text><text font-family="Calibri,Calibri_MSFontService,sans-serif" font-weight="400" font-size="24" transform="translate(303.163 536)">classification log</text><rect x="558.5" y="456.5" width="313" height="86" stroke="#172C51" stroke-width="1.33333" stroke-miterlimit="8" fill="none"/><text font-family="Calibri,Calibri_MSFontService,sans-serif" font-weight="400" font-size="24" transform="translate(602.142 478)">Kraken2 report output:</text><text font-family="Calibri,Calibri_MSFontService,sans-serif" font-weight="400" font-size="24" transform="translate(584.856 507)">Taxonomic read and k</text><text font-family="Calibri,Calibri_MSFontService,sans-serif" font-weight="400" font-size="24" transform="translate(796.802 507)">-</text><text font-family="Calibri,Calibri_MSFontService,sans-serif" font-weight="400" font-size="24" transform="translate(804.136 507)">mer</text><text font-family="Calibri,Calibri_MSFontService,sans-serif" font-weight="400" font-size="24" transform="translate(630.562 536)">minimizer counts</text><path d="M889.5 493 937.5 493 937.5 486.5 950.5 499.5 937.5 512.5 937.5 506 889.5 506Z" stroke="#2F528F" stroke-width="1.33333" stroke-miterlimit="8" fill="#4472C4" fill-rule="evenodd"/><rect x="972.5" y="596.5" width="190" height="53" stroke="#172C51" stroke-width="1.33333" stroke-miterlimit="8" fill="none"/><text font-family="Calibri,Calibri_MSFontService,sans-serif" font-weight="400" font-size="24" transform="translate(1005.93 616)">OTU table of</text><text font-family="Calibri,Calibri_MSFontService,sans-serif" font-weight="400" font-size="24" transform="translate(1009.83 645)">read counts</text><rect x="640.5" y="621.5" width="190" height="53" stroke="#172C51" stroke-width="1.33333" stroke-miterlimit="8" fill="none"/><text font-family="Calibri,Calibri_MSFontService,sans-serif" font-weight="400" font-size="24" transform="translate(664.806 640)">Table of k</text><text font-family="Calibri,Calibri_MSFontService,sans-serif" font-weight="400" font-size="24" transform="translate(758.1 640)">-</text><text font-family="Calibri,Calibri_MSFontService,sans-serif" font-weight="400" font-size="24" transform="translate(765.433 640)">mer</text><text font-family="Calibri,Calibri_MSFontService,sans-serif" font-weight="400" font-size="24" transform="translate(651.18 669)">minimizer counts</text><text fill="#4472C4" font-family="Abadi,Abadi_MSFontService,sans-serif" font-weight="400" font-size="14" transform="translate(882.366 475)">kraken</text><text fill="#4472C4" font-family="Abadi,Abadi_MSFontService,sans-serif" font-weight="400" font-size="14" transform="translate(922.2 475)">-</text><text fill="#4472C4" font-family="Abadi,Abadi_MSFontService,sans-serif" font-weight="400" font-size="14" transform="translate(926.866 475)">biom</text><path d="M729 553.5 729 601.5 735.5 601.5 722.5 614.5 709.5 601.5 716 601.5 716 553.5Z" stroke="#2F528F" stroke-width="1.33333" stroke-miterlimit="8" fill="#4472C4" fill-rule="evenodd"/><text fill="#4472C4" font-family="Abadi,Abadi_MSFontService,sans-serif" font-weight="400" font-size="14" transform="translate(608.485 584)">custom R script</text><rect x="327.5" y="76.5001" width="199" height="86" stroke="#172C51" stroke-width="1.33333" stroke-miterlimit="8" fill="none"/><text font-family="Calibri,Calibri_MSFontService,sans-serif" font-weight="400" font-size="24" transform="translate(342.806 112)">Genome libraries</text><text font-family="Calibri,Calibri_MSFontService,sans-serif" font-weight="400" font-size="24" transform="translate(366.486 141)">from</text><text font-family="Calibri,Calibri_MSFontService,sans-serif" font-weight="400" font-size="24" transform="translate(419.099 141)">RefSeq</text><text fill="#4472C4" font-family="Abadi,Abadi_MSFontService,sans-serif" font-weight="400" font-size="14" transform="translate(329.059 199)">kraken2</text><text fill="#4472C4" font-family="Abadi,Abadi_MSFontService,sans-serif" font-weight="400" font-size="14" transform="translate(377.393 199)">-</text><text fill="#4472C4" font-family="Abadi,Abadi_MSFontService,sans-serif" font-weight="400" font-size="14" transform="translate(382.059 199)">build</text><path d="M556.25 345.5 556.25 394 562.5 394 550 406.5 537.5 394 543.75 394 543.75 345.5Z" stroke="#2F528F" stroke-width="1.33333" stroke-miterlimit="8" fill="#4472C4" fill-rule="evenodd"/><text fill="#4472C4" font-family="Abadi,Abadi_MSFontService,sans-serif" font-weight="400" font-size="14" transform="translate(476.053 378)">kraken2</text><rect x="574.5" y="242.5" width="200" height="86" stroke="#172C51" stroke-width="1.33333" stroke-miterlimit="8" fill="none"/><text font-family="Calibri,Calibri_MSFontService,sans-serif" font-weight="400" font-size="24" transform="translate(587.556 263)">Paired</text><text font-family="Calibri,Calibri_MSFontService,sans-serif" font-weight="400" font-size="24" transform="translate(649.063 263)">-</text><text font-family="Calibri,Calibri_MSFontService,sans-serif" font-weight="400" font-size="24" transform="translate(656.396 263)">end FASTQ</text><text font-family="Calibri,Calibri_MSFontService,sans-serif" font-weight="400" font-size="24" transform="translate(627.989 292)">files from</text><text font-family="Calibri,Calibri_MSFontService,sans-serif" font-weight="400" font-size="24" transform="translate(584.909 321)">KneadData</text><text font-family="Calibri,Calibri_MSFontService,sans-serif" font-weight="400" font-size="24" transform="translate(696.689 321)">output</text><rect x="972.5" y="655.5" width="190" height="53" stroke="#172C51" stroke-width="1.33333" stroke-miterlimit="8" fill="none"/><text font-family="Calibri,Calibri_MSFontService,sans-serif" font-weight="400" font-size="24" transform="translate(987.976 689)">Taxonomic table</text><path d="M1073.25 531.5 1073.25 580 1079.5 580 1067 592.5 1054.5 580 1060.75 580 1060.75 531.5Z" stroke="#2F528F" stroke-width="1.33333" stroke-miterlimit="8" fill="#4472C4" fill-rule="evenodd"/><rect x="968.5" y="472.5" width="190" height="53" stroke="#172C51" stroke-width="1.33333" stroke-miterlimit="8" fill="none"/><text font-family="Calibri,Calibri_MSFontService,sans-serif" font-weight="400" font-size="24" transform="translate(1008.12 506)">BIOM table</text><text fill="#4472C4" font-family="Abadi,Abadi_MSFontService,sans-serif" font-weight="400" font-size="14" transform="translate(994.612 561)">phyloseq</text><path d="M774.5 330.5C774.5 339.06 773.344 346 771.917 346L553.583 346C552.157 346 551 352.94 551 361.5 551 352.94 549.844 346 548.417 346L330.083 346C328.657 346 327.5 339.06 327.5 330.5" stroke="#4472C4" stroke-width="0.666667" stroke-miterlimit="8" fill="none" fill-rule="evenodd"/></g></svg>