<svg width="1280" height="720" xmlns="http://www.w3.org/2000/svg" xmlns:xlink="http://www.w3.org/1999/xlink" overflow="hidden"><g><rect x="0" y="0" width="1280" height="720" fill="#FFFFFF"/><text font-family="Calibri Light,Calibri Light_MSFontService,sans-serif" font-weight="300" font-size="48" transform="translate(97.6 70)">MetaPhlAn4: Taxonomic classification using marker genes</text><rect x="391.5" y="347.5" width="200" height="85" stroke="#172C51" stroke-width="1.33333" stroke-miterlimit="8" fill="none"/><text font-family="Calibri,Calibri_MSFontService,sans-serif" font-weight="400" font-size="24" transform="translate(432.606 368)">Database of</text><text font-family="Calibri,Calibri_MSFontService,sans-serif" font-weight="400" font-size="24" transform="translate(408.093 397)">marker genes for</text><text font-family="Calibri,Calibri_MSFontService,sans-serif" font-weight="400" font-size="24" transform="translate(455.266 426)">species</text><path d="M497.25 277.5 497.25 326 503.5 326 491 338.5 478.5 326 484.75 326 484.75 277.5Z" stroke="#2F528F" stroke-width="1.33333" stroke-miterlimit="8" fill="#4472C4" fill-rule="evenodd"/><rect x="460.5" y="524.5" width="313" height="32" stroke="#172C51" stroke-width="1.33333" stroke-miterlimit="8" fill="none"/><text font-family="Calibri,Calibri_MSFontService,sans-serif" font-weight="400" font-size="24" transform="translate(516.644 548)">Classification output</text><rect x="460.5" y="567.5" width="313" height="86" stroke="#172C51" stroke-width="1.33333" stroke-miterlimit="8" fill="none"/><text font-family="Calibri,Calibri_MSFontService,sans-serif" font-weight="400" font-size="24" transform="translate(522.848 603)">Taxonomic</text><text font-family="Calibri,Calibri_MSFontService,sans-serif" font-style="italic" font-weight="400" font-size="24" transform="translate(631.941 603)">Relative</text><text font-family="Calibri,Calibri_MSFontService,sans-serif" font-weight="400" font-size="24" transform="translate(556.101 632)">Abundances</text><rect x="357.5" y="142.5" width="271" height="130" stroke="#172C51" stroke-width="1.33333" stroke-miterlimit="8" fill="none"/><text font-family="Calibri,Calibri_MSFontService,sans-serif" font-weight="400" font-size="24" transform="translate(368.109 186)">Isolate and metagenome</text><text font-family="Calibri,Calibri_MSFontService,sans-serif" font-weight="400" font-size="24" transform="translate(610.343 186)">-</text><text font-family="Calibri,Calibri_MSFontService,sans-serif" font-weight="400" font-size="24" transform="translate(391.363 215)">assembled reference</text><text font-family="Calibri,Calibri_MSFontService,sans-serif" font-weight="400" font-size="24" transform="translate(448.409 244)">genomes</text><path d="M621 455.5 621 503.5 627.5 503.5 614.5 516.5 601.5 503.5 608 503.5 608 455.5Z" stroke="#2F528F" stroke-width="1.33333" stroke-miterlimit="8" fill="#4472C4" fill-rule="evenodd"/><text fill="#4472C4" font-family="Abadi,Abadi_MSFontService,sans-serif" font-weight="400" font-size="14" transform="translate(528.097 484)">MetaPhlAn4</text><rect x="639.5" y="348.5" width="199" height="86" stroke="#172C51" stroke-width="1.33333" stroke-miterlimit="8" fill="none"/><text font-family="Calibri,Calibri_MSFontService,sans-serif" font-weight="400" font-size="24" transform="translate(651.85 370)">Paired</text><text font-family="Calibri,Calibri_MSFontService,sans-serif" font-weight="400" font-size="24" transform="translate(713.356 370)">-</text><text font-family="Calibri,Calibri_MSFontService,sans-serif" font-weight="400" font-size="24" transform="translate(720.69 370)">end FASTQ</text><text font-family="Calibri,Calibri_MSFontService,sans-serif" font-weight="400" font-size="24" transform="translate(692.283 399)">files from</text><text font-family="Calibri,Calibri_MSFontService,sans-serif" font-weight="400" font-size="24" transform="translate(649.203 428)">KneadData</text><text font-family="Calibri,Calibri_MSFontService,sans-serif" font-weight="400" font-size="24" transform="translate(760.983 428)">output</text><path d="M838.5 439.5C838.5 448.06 837.344 455 835.917 455L617.583 455C616.157 455 615 461.94 615 470.5 615 461.94 613.844 455 612.417 455L394.083 455C392.657 455 391.5 448.06 391.5 439.5" stroke="#4472C4" stroke-width="0.666667" stroke-miterlimit="8" fill="none" fill-rule="evenodd"/><path d="M351.5 432.5C342.94 432.5 336 431.344 336 429.917L336 290.083C336 288.657 329.06 287.5 320.5 287.5 329.06 287.5 336 286.344 336 284.917L336 145.083C336 143.657 342.94 142.5 351.5 142.5" stroke="#4472C4" stroke-width="0.666667" stroke-miterlimit="8" fill="none" fill-rule="evenodd"/><text fill="#4472C4" font-family="Abadi,Abadi_MSFontService,sans-serif" font-weight="400" font-size="14" transform="translate(197.306 322)">Within MetaPhlAn4</text></g></svg>