<svg width="1280" height="720" xmlns="http://www.w3.org/2000/svg" xmlns:xlink="http://www.w3.org/1999/xlink" overflow="hidden"><g><rect x="0" y="0" width="1280" height="720" fill="#FFFFFF"/><text font-family="Calibri Light,Calibri Light_MSFontService,sans-serif" font-weight="300" font-size="48" transform="translate(97.6002 70)">MetaPhlAn4: Taxonomic classification using marker genes</text><rect x="281.5" y="347.5" width="199" height="85" stroke="#172C51" stroke-width="1.33333" stroke-miterlimit="8" fill="none"/><text font-family="Calibri,Calibri_MSFontService,sans-serif" font-weight="400" font-size="24" transform="translate(322.515 368)">Database of</text><text font-family="Calibri,Calibri_MSFontService,sans-serif" font-weight="400" font-size="24" transform="translate(298.001 397)">marker genes for</text><text font-family="Calibri,Calibri_MSFontService,sans-serif" font-weight="400" font-size="24" transform="translate(345.175 426)">species</text><path d="M387.25 277.5 387.25 326 393.5 326 381 338.5 368.5 326 374.75 326 374.75 277.5Z" stroke="#2F528F" stroke-width="1.33333" stroke-miterlimit="8" fill="#4472C4" fill-rule="evenodd"/><rect x="350.5" y="524.5" width="313" height="32" stroke="#172C51" stroke-width="1.33333" stroke-miterlimit="8" fill="none"/><text font-family="Calibri,Calibri_MSFontService,sans-serif" font-weight="400" font-size="24" transform="translate(406.553 548)">Classification output</text><rect x="350.5" y="567.5" width="313" height="86" stroke="#172C51" stroke-width="1.33333" stroke-miterlimit="8" fill="none"/><text font-family="Calibri,Calibri_MSFontService,sans-serif" font-weight="400" font-size="24" transform="translate(414.963 603)">Taxonomic</text><text font-family="Calibri,Calibri_MSFontService,sans-serif" font-style="italic" font-weight="400" font-size="24" transform="translate(524.056 603)">r</text><text font-family="Calibri,Calibri_MSFontService,sans-serif" font-style="italic" font-weight="400" font-size="24" transform="translate(532.223 603)">elative</text><text font-family="Calibri,Calibri_MSFontService,sans-serif" font-weight="400" font-size="24" transform="translate(447.176 632)">a</text><text font-family="Calibri,Calibri_MSFontService,sans-serif" font-weight="400" font-size="24" transform="translate(458.676 632)">bundances</text><rect x="247.5" y="142.5" width="271" height="130" stroke="#172C51" stroke-width="1.33333" stroke-miterlimit="8" fill="none"/><text font-family="Calibri,Calibri_MSFontService,sans-serif" font-weight="400" font-size="24" transform="translate(258.018 186)">Isolate and metagenome</text><text font-family="Calibri,Calibri_MSFontService,sans-serif" font-weight="400" font-size="24" transform="translate(500.251 186)">-</text><text font-family="Calibri,Calibri_MSFontService,sans-serif" font-weight="400" font-size="24" transform="translate(281.271 215)">assembled reference</text><text font-family="Calibri,Calibri_MSFontService,sans-serif" font-weight="400" font-size="24" transform="translate(338.318 244)">genomes</text><path d="M511 455.5 511 503.5 517.5 503.5 504.5 516.5 491.5 503.5 498 503.5 498 455.5Z" stroke="#2F528F" stroke-width="1.33333" stroke-miterlimit="8" fill="#4472C4" fill-rule="evenodd"/><text fill="#4472C4" font-family="Abadi,Abadi_MSFontService,sans-serif" font-weight="400" font-size="14.0133" transform="translate(418.005 484)">MetaPhlAn4</text><rect x="529.5" y="348.5" width="199" height="86" stroke="#172C51" stroke-width="1.33333" stroke-miterlimit="8" fill="none"/><text font-family="Calibri,Calibri_MSFontService,sans-serif" font-weight="400" font-size="24" transform="translate(541.758 370)">Paired</text><text font-family="Calibri,Calibri_MSFontService,sans-serif" font-weight="400" font-size="24" transform="translate(603.265 370)">-</text><text font-family="Calibri,Calibri_MSFontService,sans-serif" font-weight="400" font-size="24" transform="translate(610.598 370)">end FASTQ</text><text font-family="Calibri,Calibri_MSFontService,sans-serif" font-weight="400" font-size="24" transform="translate(582.191 399)">files from</text><text font-family="Calibri,Calibri_MSFontService,sans-serif" font-weight="400" font-size="24" transform="translate(539.111 428)">KneadData</text><text font-family="Calibri,Calibri_MSFontService,sans-serif" font-weight="400" font-size="24" transform="translate(650.891 428)">output</text><path d="M728.5 439.5C728.5 448.06 727.344 455 725.917 455L507.583 455C506.157 455 505 461.94 505 470.5 505 461.94 503.844 455 502.417 455L284.083 455C282.657 455 281.5 448.06 281.5 439.5" stroke="#4472C4" stroke-width="0.666667" stroke-miterlimit="8" fill="none" fill-rule="evenodd"/><path d="M241.5 432.5C232.663 432.5 225.5 431.306 225.5 429.833L225.5 290.167C225.5 288.694 218.336 287.5 209.5 287.5 218.336 287.5 225.5 286.306 225.5 284.833L225.5 145.167C225.5 143.694 232.663 142.5 241.5 142.5" stroke="#4472C4" stroke-width="0.666667" stroke-miterlimit="8" fill="none" fill-rule="evenodd"/><text fill="#4472C4" font-family="Abadi,Abadi_MSFontService,sans-serif" font-weight="400" font-size="14.0133" transform="translate(87.2144 292)">Within MetaPhlAn4</text><path d="M687.5 609.25 800 609.25 800 601.5 815.5 617 800 632.5 800 624.75 687.5 624.75Z" stroke="#2F528F" stroke-width="1.33333" stroke-miterlimit="8" fill="#4472C4" fill-rule="evenodd"/><rect x="837.5" y="567.5" width="313" height="86" stroke="#172C51" stroke-width="1.33333" stroke-miterlimit="8" fill="none"/><text font-family="Calibri,Calibri_MSFontService,sans-serif" font-weight="400" font-size="24" transform="translate(878.522 603)">Combined species</text><text font-family="Calibri,Calibri_MSFontService,sans-serif" font-weight="400" font-size="24" transform="translate(1055.19 603)">-</text><text font-family="Calibri,Calibri_MSFontService,sans-serif" font-weight="400" font-size="24" transform="translate(1062.52 603)">level</text><text font-family="Calibri,Calibri_MSFontService,sans-serif" font-style="italic" font-weight="400" font-size="24" transform="translate(895.008 632)">relative</text><text font-family="Calibri,Calibri_MSFontService,sans-serif" font-weight="400" font-size="24" transform="translate(973.675 632)">abundances</text><text fill="#4472C4" font-family="Abadi,Abadi_MSFontService,sans-serif" font-weight="400" font-size="14.0133" transform="translate(710.895 574)">MetaPhlAn</text><text fill="#4472C4" font-family="Abadi,Abadi_MSFontService,sans-serif" font-weight="400" font-size="14.0133" transform="translate(704.475 591)">Utility script</text><text fill="#4472C4" font-family="Abadi,Abadi_MSFontService,sans-serif" font-weight="400" font-size="14.0133" transform="translate(775.475 591)">s</text></g></svg>