<svg width="1280" height="720" xmlns="http://www.w3.org/2000/svg" xmlns:xlink="http://www.w3.org/1999/xlink" overflow="hidden"><g><rect x="0" y="0" width="1280" height="720" fill="#FFFFFF"/><text font-family="Abadi,Abadi_MSFontService,sans-serif" font-weight="400" font-size="48" transform="translate(59.25 83)">Dual Pipelines for Metagenomic Taxonomic Classification</text><rect x="8.50005" y="341.5" width="157" height="38" stroke="#000000" stroke-linejoin="round" stroke-miterlimit="10" fill="none"/><text font-family="Abadi,Abadi_MSFontService,sans-serif" font-weight="400" font-size="24" transform="translate(25.0962 368)">FASTQ Files</text><path d="M207.5 354 255.5 354 255.5 347.5 268.5 360.5 255.5 373.5 255.5 367 207.5 367Z" stroke="#2F528F" stroke-width="1.33333" stroke-miterlimit="8" fill="#4472C4" fill-rule="evenodd"/><rect x="516.5" y="331.5" width="182" height="68" stroke="#000000" stroke-linejoin="round" stroke-miterlimit="10" fill="none"/><text font-family="Abadi,Abadi_MSFontService,sans-serif" font-weight="400" font-size="24" transform="translate(543.852 359)">QC’d</text><text font-family="Abadi,Abadi_MSFontService,sans-serif" font-weight="400" font-size="24" transform="translate(600.852 359)">FASTQ</text><text font-family="Abadi,Abadi_MSFontService,sans-serif" font-weight="400" font-size="24" transform="translate(586.518 387)">files</text><path d="M710.722 355.843 852.539 273.967 849.401 268.53 866.55 273.126 861.955 290.275 858.816 284.839 716.999 366.715Z" stroke="#2F528F" stroke-width="1.33333" stroke-miterlimit="8" fill="#4472C4" fill-rule="evenodd"/><path d="M718.285 364.891 853.03 457.947 856.597 452.782 859.793 470.246 842.329 473.442 845.897 468.277 711.151 375.221Z" stroke="#2F528F" stroke-width="1.33333" stroke-miterlimit="8" fill="#4472C4" fill-rule="evenodd"/><rect x="867.5" y="188.5" width="156" height="67" stroke="#000000" stroke-linejoin="round" stroke-miterlimit="10" fill="none"/><text font-family="Abadi,Abadi_MSFontService,sans-serif" font-weight="400" font-size="24" transform="translate(896.939 215)">Classified</text><text font-family="Abadi,Abadi_MSFontService,sans-serif" font-weight="400" font-size="24" transform="translate(888.439 243)">kmers</text><text font-family="Abadi,Abadi_MSFontService,sans-serif" font-weight="400" font-size="24" transform="translate(956.939 243)">(.txt)</text><path d="M1039.5 218.75 1089 218.75 1089 212.5 1101.5 225 1089 237.5 1089 231.25 1039.5 231.25Z" stroke="#2F528F" stroke-width="1.33333" stroke-miterlimit="8" fill="#4472C4" fill-rule="evenodd"/><rect x="1123.5" y="183.5" width="156" height="126" stroke="#000000" stroke-linejoin="round" stroke-miterlimit="10" fill="none"/><text font-family="Abadi,Abadi_MSFontService,sans-serif" font-weight="400" font-size="24" transform="translate(1146.82 211)">Taxonomic</text><text font-family="Abadi,Abadi_MSFontService,sans-serif" font-weight="400" font-size="24" transform="translate(1160.9 239)">Relative</text><text font-family="Abadi,Abadi_MSFontService,sans-serif" font-weight="400" font-size="24" transform="translate(1138.73 268)">Abundances</text><text font-family="Abadi,Abadi_MSFontService,sans-serif" font-weight="400" font-size="24" transform="translate(1177.06 297)">(.</text><text font-family="Abadi,Abadi_MSFontService,sans-serif" font-weight="400" font-size="24" transform="translate(1189.06 297)">tsv</text><text font-family="Abadi,Abadi_MSFontService,sans-serif" font-weight="400" font-size="24" transform="translate(1218.73 297)">)</text><rect x="874.5" y="432.5" width="156" height="156" stroke="#000000" stroke-linejoin="round" stroke-miterlimit="10" fill="none"/><text font-family="Abadi,Abadi_MSFontService,sans-serif" font-weight="400" font-size="24" transform="translate(883.235 460)">Marker</text><text font-family="Abadi,Abadi_MSFontService,sans-serif" font-weight="400" font-size="24" transform="translate(954.235 460)">-</text><text font-family="Abadi,Abadi_MSFontService,sans-serif" font-weight="400" font-size="24" transform="translate(962.235 460)">gene</text><text font-family="Abadi,Abadi_MSFontService,sans-serif" font-weight="400" font-size="24" transform="translate(1012.4 460)">-</text><text font-family="Abadi,Abadi_MSFontService,sans-serif" font-weight="400" font-size="24" transform="translate(921.155 488)">based</text><text font-family="Abadi,Abadi_MSFontService,sans-serif" font-weight="400" font-size="24" transform="translate(914.401 517)">species</text><text font-family="Abadi,Abadi_MSFontService,sans-serif" font-weight="400" font-size="24" transform="translate(896.235 546)">abundance</text><text font-family="Abadi,Abadi_MSFontService,sans-serif" font-weight="400" font-size="24" transform="translate(927.735 575)">(.</text><text font-family="Abadi,Abadi_MSFontService,sans-serif" font-weight="400" font-size="24" transform="translate(939.735 575)">tsv</text><text font-family="Abadi,Abadi_MSFontService,sans-serif" font-weight="400" font-size="24" transform="translate(969.401 575)">)</text><path d="M320.5 353.75 368 353.75 368 347.5 380.5 360 368 372.5 368 366.25 320.5 366.25Z" stroke="#2F528F" stroke-width="1.33333" stroke-miterlimit="8" fill="#4472C4" fill-rule="evenodd"/><path d="M426.5 354.75 474 354.75 474 348.5 486.5 361 474 373.5 474 367.25 426.5 367.25Z" stroke="#2F528F" stroke-width="1.33333" stroke-miterlimit="8" fill="#4472C4" fill-rule="evenodd"/><text fill="#4472C4" font-family="Abadi,Abadi_MSFontService,sans-serif" font-weight="400" font-size="14" transform="translate(406.727 288)">Bowtie2: Remove</text><text fill="#4472C4" font-family="Abadi,Abadi_MSFontService,sans-serif" font-weight="400" font-size="14" transform="translate(401.64 305)">host (human) DNA</text><text fill="#4472C4" font-family="Abadi,Abadi_MSFontService,sans-serif" font-weight="400" font-size="14" transform="translate(415.64 322)">using CHM13</text><text fill="#4472C4" font-family="Abadi,Abadi_MSFontService,sans-serif" font-weight="400" font-size="14" transform="translate(429.64 339)">database</text><text fill="#4472C4" font-family="Abadi,Abadi_MSFontService,sans-serif" font-weight="400" font-size="14" transform="translate(190.978 286)">Trimmomatic</text><text fill="#4472C4" font-family="Abadi,Abadi_MSFontService,sans-serif" font-weight="400" font-size="14" transform="translate(267.644 286)">:</text><text fill="#4472C4" font-family="Abadi,Abadi_MSFontService,sans-serif" font-weight="400" font-size="14" transform="translate(173.398 303)">Trim adapters, low</text><text fill="#4472C4" font-family="Abadi,Abadi_MSFontService,sans-serif" font-weight="400" font-size="14" transform="translate(283.731 303)">-</text><text fill="#4472C4" font-family="Abadi,Abadi_MSFontService,sans-serif" font-weight="400" font-size="14" transform="translate(174.811 320)">quality bases; filter</text><text fill="#4472C4" font-family="Abadi,Abadi_MSFontService,sans-serif" font-weight="400" font-size="14" transform="translate(197.144 337)">short reads</text><text fill="#4472C4" font-family="Abadi,Abadi_MSFontService,sans-serif" font-weight="400" font-size="14" transform="translate(334.137 294)">TRF:</text><text fill="#4472C4" font-family="Abadi,Abadi_MSFontService,sans-serif" font-weight="400" font-size="14" transform="translate(303.883 311)">Trim repetitive</text><text fill="#4472C4" font-family="Abadi,Abadi_MSFontService,sans-serif" font-weight="400" font-size="14" transform="translate(315.803 328)">sequences</text><text fill="#4472C4" font-family="Abadi,Abadi_MSFontService,sans-serif" font-weight="400" font-size="14" transform="translate(733.674 296)">Kraken2</text><text fill="#4472C4" font-family="Abadi,Abadi_MSFontService,sans-serif" font-weight="400" font-size="14" transform="translate(723.444 461)">MetaPhlAn4</text><text fill="#4472C4" font-family="Abadi,Abadi_MSFontService,sans-serif" font-weight="400" font-size="14" transform="translate(1045.61 203)">Bracken</text><path d="M486.5 389.5C486.5 396.128 485.605 401.5 484.5 401.5L349 401.5C347.895 401.5 347 406.873 347 413.5 347 406.873 346.105 401.5 345 401.5L209.5 401.5C208.395 401.5 207.5 396.128 207.5 389.5" stroke="#4472C4" stroke-width="0.666667" stroke-miterlimit="8" fill="none" fill-rule="evenodd"/><text fill="#4472C4" font-family="Abadi,Abadi_MSFontService,sans-serif" font-weight="400" font-size="14" transform="translate(313.646 430)">KneadData</text></g></svg>